<?xml version="1.0" encoding="utf-8"?>
<!-- Generator: Adobe Illustrator 26.5.0, SVG Export Plug-In . SVG Version: 6.00 Build 0)  -->
<svg version="1.1" id="Layer_1" xmlns="http://www.w3.org/2000/svg" xmlns:xlink="http://www.w3.org/1999/xlink" x="0px" y="0px"
	 viewBox="0 0 1000 300" style="enable-background:new 0 0 1000 300;" xml:space="preserve">
<polygon style="fill:#FEBC12;" points="833.824,68.4879 826.2964,61.0144 818.7687,68.4879 674.8796,68.4879 659.4954,53.2144 
	649.3859,63.2511 644.1111,58.0144 636.419,65.6512 628.7268,58.0144 618.1774,68.4879 429.2375,68.4879 413.8532,53.2144 
	403.7437,63.2511 398.469,58.0144 387.9195,68.4879 121.3473,68.4879 123.7646,66.0879 108.3803,50.8144 92.996,66.0879 
	95.4134,68.4879 0,69.8229 0,301.1992 1000,299.8642 1000,68.4879 "/>
<path style="fill:#FFFFFF;" d="M790.2526,157.6279c-0.0922-0.0381-0.1866-0.0566-0.2802-0.084l0.0112-0.0271
	c1.3896,0.5739,2.9814-0.0874,3.5553-1.477c0.5739-1.3897-0.0873-2.9814-1.4771-3.5553c-1.3896-0.5739-2.9814,0.0874-3.5553,1.4771
	l-20.2653-8.3692c0.7355-1.7809-0.112-3.8209-1.8929-4.5564c-1.7809-0.7355-3.8209,0.112-4.5564,1.8929
	c-0.6315,1.5293-0.0902,3.2442,1.2015,4.1655c-0.9465,0.1132-1.8077,0.7086-2.1974,1.6523
	c-0.5739,1.3896,0.0874,2.9815,1.4771,3.5553c1.2906,0.533,2.7448-0.0082,3.4068-1.2l20.8517,8.6113
	c-0.1961,1.2179,0.4528,2.4555,1.6426,2.9468c1.3896,0.5739,2.9814-0.0874,3.5553-1.477
	C792.3035,159.7936,791.6422,158.2018,790.2526,157.6279z"/>
<ellipse style="opacity:0.5;" cx="204.1841" cy="240.5833" rx="53.5999" ry="15.2"/>
<path style="fill:#01A072;" d="M219.4599,196.756c0-16.3709-12.1352-29.9005-27.8995-32.1025
	c1.4536-0.2076,2.9376-0.321,4.4486-0.321c17.2313,0,31.2,13.9687,31.2,31.2c0,15.8707-11.8529,28.9642-27.1877,30.9344
	C211.4624,221.4593,219.4599,210.0444,219.4599,196.756z"/>
<path style="fill:#01A072;" d="M199.6959,125.3835c1.7234,0,3.4162,0.1283,5.0757,0.3601
	c-16.9678,2.4233-30.0143,17.0076-30.0143,34.6453c0,19.333,15.6725,35.0055,35.0055,35.0055c1.5265,0,3.0267-0.1085,4.5016-0.298
	c-4.4617,1.9528-9.3866,3.0435-14.5686,3.0435c-20.0912,0-36.3783-16.2871-36.3783-36.3783S179.6048,125.3835,199.6959,125.3835z"/>
<path style="fill:#01A072;" d="M205.1186,212.8574c0.8508,0,1.6865,0.0634,2.5058,0.1778
	c-8.3766,1.1963-14.8173,8.3963-14.8173,17.1036c0,9.5442,7.7371,17.2814,17.2813,17.2814c0.7536,0,1.4942-0.0536,2.2224-0.1471
	c-2.2026,0.9641-4.6339,1.5025-7.1921,1.5025c-9.9185,0-17.9591-8.0405-17.9591-17.9591
	C187.1595,220.898,195.2001,212.8574,205.1186,212.8574z"/>
</svg>
