<?xml version="1.0" encoding="utf-8"?>
<!-- Generator: Adobe Illustrator 27.2.0, SVG Export Plug-In . SVG Version: 6.00 Build 0)  -->
<svg version="1.1" xmlns="http://www.w3.org/2000/svg" xmlns:xlink="http://www.w3.org/1999/xlink" x="0px" y="0px"
	 viewBox="0 0 115.7243 197.5294" style="enable-background:new 0 0 115.7243 197.5294;" xml:space="preserve">
<g id="Layer_3">
	<rect x="27.7585" y="101.6551" style="fill-rule:evenodd;clip-rule:evenodd;" width="7.5" height="11.7589"/>
	<rect x="27.7585" y="122.7453" style="fill-rule:evenodd;clip-rule:evenodd;" width="7.5" height="11.7589"/>
	<rect x="27.7585" y="38.3047" style="fill-rule:evenodd;clip-rule:evenodd;" width="7.5" height="11.7589"/>
	<rect x="27.7585" y="59.3948" style="fill-rule:evenodd;clip-rule:evenodd;" width="7.5" height="11.7589"/>
	<rect x="27.7585" y="80.4159" style="fill-rule:evenodd;clip-rule:evenodd;" width="7.5" height="11.7589"/>
	<path style="fill-rule:evenodd;clip-rule:evenodd;" d="M69.3842,22.1915c-1.0548-1.9626-2.3845-3.77-3.9441-5.3603l-5.2976,5.309
		c1.0272,1.0591,1.9041,2.2543,2.6055,3.5455c0.7003,1.2958,1.1361,2.7107,1.4252,4.1464l7.3787-1.3436
		C71.1271,26.3054,70.4384,24.1587,69.3842,22.1915z"/>
	<path style="fill-rule:evenodd;clip-rule:evenodd;" d="M43.2864,11.3698l2.2241,7.1627c1.4107-0.4098,2.8708-0.6182,4.3506-0.652
		c1.4803,0.0339,2.9387,0.2527,4.3483,0.6647l2.2427-7.1569c-2.1381-0.6406-4.3568-0.9734-6.5814-1.0078
		C47.6465,10.413,45.4265,10.7331,43.2864,11.3698z"/>
	<path style="fill-rule:evenodd;clip-rule:evenodd;" d="M30.3597,22.0694c-1.0485,1.9695-1.7684,4.1018-2.2061,6.2849l7.3703,1.389
		c0.2973-1.4358,0.7601-2.8386,1.4504-4.1388c0.7128-1.286,1.5997-2.4739,2.6351-3.5239l-5.2651-5.3412
		C32.7733,18.3174,31.4299,20.1144,30.3597,22.0694z"/>
	<rect x="64.4258" y="80.5353" style="fill-rule:evenodd;clip-rule:evenodd;" width="7.5" height="11.7589"/>
	<rect x="64.4258" y="59.4452" style="fill-rule:evenodd;clip-rule:evenodd;" width="7.5" height="11.7589"/>
	<rect x="64.4258" y="38.4241" style="fill-rule:evenodd;clip-rule:evenodd;" width="7.5" height="11.7589"/>
	<rect x="64.4258" y="122.7956" style="fill-rule:evenodd;clip-rule:evenodd;" width="7.5" height="11.7589"/>
	<rect x="64.4258" y="101.7746" style="fill-rule:evenodd;clip-rule:evenodd;" width="7.5" height="11.7589"/>
</g>
<g id="Layer_1">
	<path style="fill:#FFFFFF;" d="M61.9296,111.1768H22.9625c-6.6,0-12,5.4-12,12v42.9135c0,6.6,5.4,12,12,12h38.9671
		c6.6,0,12-5.4,12-12v-42.9135C73.9296,116.5767,68.5296,111.1768,61.9296,111.1768z"/>
	
		<ellipse transform="matrix(0.9732 -0.2298 0.2298 0.9732 -6.1029 12.2806)" style="fill:#FFFFFF;" cx="49.6846" cy="32.3478" rx="8.1093" ry="8.1094"/>
	<path d="M108.1997,176.993L76.4292,151.662v-28.4855c0-7.0526-5.0639-12.9385-11.7451-14.2299V32.3479
		c0-8.2842-6.7148-15-14.9995-15c-8.2842,0-15,6.7158-15,15v76.3286H22.9624c-7.9951,0-14.5,6.5049-14.5,14.5v42.9141
		c0,7.9951,6.5049,14.5,14.5,14.5h38.9668c7.9951,0,14.5-6.5049,14.5-14.5v-1.639l25.5361,20.3597
		c0.9209,0.7344,2.0215,1.0908,3.1143,1.0908c1.4688,0,2.9248-0.6445,3.9121-1.8828
		C110.7134,181.8602,110.3589,178.7137,108.1997,176.993z M49.6846,24.2385c4.4787,0,8.1094,3.6307,8.1094,8.1093
		c0,4.4787-3.6307,8.1094-8.1094,8.1094c-4.4786,0-8.1093-3.6307-8.1093-8.1094C41.5753,27.8692,45.206,24.2385,49.6846,24.2385z
		 M71.4292,147.6755l-6.7451-5.3779l-5.7002-4.5449c-2.1592-1.7197-5.3037-1.3672-7.0269,0.7925
		c-1.7212,2.1592-1.3667,5.3052,0.7925,7.0269l11.9346,9.5153l6.7451,5.3778v5.6254c0,5.2383-4.2617,9.5-9.5,9.5H22.9624
		c-5.2383,0-9.5-4.2617-9.5-9.5v-42.9141c0-5.2383,4.2617-9.5,9.5-9.5h11.7222h27.2446c0.9581,0,1.8823,0.1455,2.7549,0.4105
		c3.8986,1.184,6.7451,4.8093,6.7451,9.0895V147.6755z"/>
</g>
</svg>
