<?xml version="1.0" encoding="utf-8"?>
<!-- Generator: Adobe Illustrator 27.2.0, SVG Export Plug-In . SVG Version: 6.00 Build 0)  -->
<svg version="1.1" xmlns="http://www.w3.org/2000/svg" xmlns:xlink="http://www.w3.org/1999/xlink" x="0px" y="0px"
	 viewBox="0 0 115.7243 197.5294" style="enable-background:new 0 0 115.7243 197.5294;" xml:space="preserve">
<g id="Layer_2">
	<rect x="27.7585" y="79.9827" style="fill-rule:evenodd;clip-rule:evenodd;" width="7.5" height="13.536"/>
	<rect x="27.7585" y="104.2603" style="fill-rule:evenodd;clip-rule:evenodd;" width="7.5" height="13.536"/>
	<path style="fill-rule:evenodd;clip-rule:evenodd;" d="M31.5358,19.7623l6.1866,4.2399c1.9184-2.7804,4.8461-4.8582,8.1071-5.7725
		l-2.0219-7.2223C38.8698,12.3888,34.4505,15.5242,31.5358,19.7623z"/>
	<path style="fill-rule:evenodd;clip-rule:evenodd;" d="M27.7585,44.8714h7.5v-6.768v-3.384v-1.692
		c0.0002-0.5592-0.0078-1.1768,0.0289-1.5353l-7.4961-0.2413c-0.0436,0.6748-0.0314,1.2099-0.0328,1.7765v1.692v3.384V44.8714z"/>
	<rect x="27.7585" y="55.5334" style="fill-rule:evenodd;clip-rule:evenodd;" width="7.5" height="13.536"/>
	<rect x="64.4258" y="55.6709" style="fill-rule:evenodd;clip-rule:evenodd;" width="7.5" height="13.536"/>
	<path style="fill-rule:evenodd;clip-rule:evenodd;" d="M71.8962,31.3168l-7.4968,0.2185c0.038,0.3553,0.0236,1.0041,0.0264,1.5501
		v1.692v3.384v6.768h7.5v-6.768v-3.384v-1.692C71.9218,32.5116,71.9402,31.9934,71.8962,31.3168z"/>
	<path style="fill-rule:evenodd;clip-rule:evenodd;" d="M56.028,11.0462l-2.0726,7.2079c3.2539,0.9417,6.1648,3.0425,8.0591,5.8363
		l6.217-4.1952C65.3504,15.6354,60.9558,12.467,56.028,11.0462z"/>
	<rect x="64.4258" y="104.3182" style="fill-rule:evenodd;clip-rule:evenodd;" width="7.5" height="13.536"/>
	<rect x="64.4258" y="80.1202" style="fill-rule:evenodd;clip-rule:evenodd;" width="7.5" height="13.536"/>
</g>
<g id="Layer_1">
	<path style="fill:#FFFFFF;" d="M61.9296,111.1768H22.9625c-6.6,0-12,5.4-12,12v42.9135c0,6.6,5.4,12,12,12h38.9671
		c6.6,0,12-5.4,12-12v-42.9135C73.9296,116.5767,68.5296,111.1768,61.9296,111.1768z"/>
	
		<ellipse transform="matrix(0.9732 -0.2298 0.2298 0.9732 -6.1029 12.2806)" style="fill:#FFFFFF;" cx="49.6846" cy="32.3478" rx="8.1093" ry="8.1094"/>
	<path d="M108.1997,176.993L76.4292,151.662v-28.4855c0-7.0526-5.0639-12.9385-11.7451-14.2299V32.3479
		c0-8.2842-6.7148-15-14.9995-15c-8.2842,0-15,6.7158-15,15v76.3286H22.9624c-7.9951,0-14.5,6.5049-14.5,14.5v42.9141
		c0,7.9951,6.5049,14.5,14.5,14.5h38.9668c7.9951,0,14.5-6.5049,14.5-14.5v-1.639l25.5361,20.3597
		c0.9209,0.7344,2.0215,1.0908,3.1143,1.0908c1.4688,0,2.9248-0.6445,3.9121-1.8828
		C110.7134,181.8602,110.3589,178.7137,108.1997,176.993z M49.6846,24.2385c4.4787,0,8.1094,3.6307,8.1094,8.1093
		c0,4.4787-3.6307,8.1094-8.1094,8.1094c-4.4786,0-8.1093-3.6307-8.1093-8.1094C41.5753,27.8692,45.206,24.2385,49.6846,24.2385z
		 M71.4292,147.6755l-6.7451-5.3779l-5.7002-4.5449c-2.1592-1.7197-5.3037-1.3672-7.0269,0.7925
		c-1.7212,2.1592-1.3667,5.3052,0.7925,7.0269l11.9346,9.5153l6.7451,5.3778v5.6254c0,5.2383-4.2617,9.5-9.5,9.5H22.9624
		c-5.2383,0-9.5-4.2617-9.5-9.5v-42.9141c0-5.2383,4.2617-9.5,9.5-9.5h11.7222h27.2446c0.9581,0,1.8823,0.1455,2.7549,0.4105
		c3.8986,1.184,6.7451,4.8093,6.7451,9.0895V147.6755z"/>
</g>
</svg>
