<?xml version="1.0" encoding="utf-8"?>
<!-- Generator: Adobe Illustrator 27.2.0, SVG Export Plug-In . SVG Version: 6.00 Build 0)  -->
<svg version="1.1" id="running1" xmlns="http://www.w3.org/2000/svg" xmlns:xlink="http://www.w3.org/1999/xlink" x="0px" y="0px"
	 viewBox="0 0 237.6 378" style="enable-background:new 0 0 237.6 378;" xml:space="preserve">
<path d="M157.5,139.4c3.9-34-20.5-64.6-54.5-68.5s-64.6,20.5-68.5,54.5L19.7,256.2l51.7,5.9l16.7-55L87.7,264l34.1,3.9l13.3-43.8
	l-0.3,45.3l7.8,0.9L157.5,139.4z"/>
<g>
	<circle style="fill:#FFFFFF;" cx="157.7" cy="85.9" r="73"/>
	<path d="M157.7002,161.3999c-41.6309,0-75.5-33.8691-75.5-75.5s33.8691-75.5,75.5-75.5s75.5,33.8691,75.5,75.5
		S199.3311,161.3999,157.7002,161.3999z M157.7002,15.3999c-38.874,0-70.5,31.626-70.5,70.5s31.626,70.5,70.5,70.5
		s70.5-31.626,70.5-70.5S196.5742,15.3999,157.7002,15.3999z"/>
</g>
<g>
	<g>
		
			<rect x="193.7569" y="60.9877" transform="matrix(0.6144 -0.789 0.789 0.6144 14.0089 184.985)" width="5.0004" height="34.3454"/>
	</g>
	<g>
		
			<rect x="180.3715" y="76.1044" transform="matrix(0.3635 -0.9316 0.9316 0.3635 51.2126 232.1647)" width="30.2698" height="5.0002"/>
	</g>
</g>
<g>
	<g>
		
			<rect x="145.6266" y="123.3031" transform="matrix(0.9796 -0.2012 0.2012 0.9796 -21.5498 39.5735)" width="76.5684" height="4.9999"/>
	</g>
	<g>
		
			<rect x="156.996" y="121.0618" transform="matrix(0.985 -0.1726 0.1726 0.985 -20.2012 29.4935)" width="5.0009" height="19.6959"/>
	</g>
	<g>
		
			<rect x="173.7132" y="118.7591" transform="matrix(0.985 -0.1723 0.1723 0.985 -19.4265 32.2748)" width="5.0008" height="18.579"/>
	</g>
	<g>
		
			<rect x="188.5909" y="115.1667" transform="matrix(0.9741 -0.226 0.226 0.9741 -23.1837 46.4079)" width="5.0003" height="18.5805"/>
	</g>
	<g>
		
			<rect x="201.6966" y="113.1397" transform="matrix(0.9808 -0.195 0.195 0.9808 -19.8423 42.1578)" width="5.0004" height="17.4349"/>
	</g>
</g>
<g>
	<g>
		<circle style="fill:#FFFFFF;" cx="147.8" cy="86.7" r="14.2"/>
		<path d="M147.7998,103.3999c-9.209,0-16.7002-7.4917-16.7002-16.6997c0-9.2085,7.4912-16.7002,16.7002-16.7002
			S164.5,77.4917,164.5,86.7002C164.5,95.9082,157.0088,103.3999,147.7998,103.3999z M147.7998,75
			c-6.4512,0-11.7002,5.2485-11.7002,11.7002c0,6.4512,5.249,11.6997,11.7002,11.6997S159.5,93.1514,159.5,86.7002
			C159.5,80.2485,154.251,75,147.7998,75z"/>
	</g>
	<g>
		<circle cx="147.7" cy="86.2" r="6.2"/>
	</g>
</g>
<g>
	<path d="M146.8,202.1c-3.3,0-6.4-2.1-7.6-5.4c-1.4-4.2,0.8-8.7,5-10.1l69.4-23.5c4.2-1.4,8.7,0.8,10.1,5s-0.8,8.7-5,10.1
		l-69.4,23.5C148.6,201.9,147.7,202.1,146.8,202.1z"/>
</g>
<g>
	<path style="fill:#FFFFFF;" d="M27.5,230.2c-0.6,0-1.3-0.1-1.9-0.2c-4.3-1.1-6.9-5.4-5.9-9.7L49,101.4c1.1-4.3,5.4-6.9,9.7-5.9
		c4.3,1.1,6.9,5.4,5.9,9.7l-29.3,119C34.4,227.8,31.1,230.2,27.5,230.2z"/>
</g>
<g>
	<path d="M154.9,365.4c-3.3,0-6.4-2.1-7.6-5.4l-42.6-125.6c-1.4-4.2,0.8-8.7,5-10.1c4.2-1.4,8.7,0.8,10.1,5l42.6,125.6
		c1.4,4.2-0.8,8.7-5,10.1C156.6,365.2,155.7,365.4,154.9,365.4z"/>
</g>
<g>
	<path d="M46,339.4c-0.7,0-1.5-0.1-2.3-0.3c-4.2-1.2-6.7-5.7-5.4-9.9l36.1-123c1.2-4.2,5.7-6.7,9.9-5.4c4.2,1.2,6.7,5.7,5.4,9.9
		l-36.1,123C52.6,337.1,49.4,339.4,46,339.4z"/>
</g>
</svg>
