<?xml version="1.0" encoding="utf-8"?>
<!-- Generator: Adobe Illustrator 27.2.0, SVG Export Plug-In . SVG Version: 6.00 Build 0)  -->
<svg version="1.1" id="running2" xmlns="http://www.w3.org/2000/svg" xmlns:xlink="http://www.w3.org/1999/xlink" x="0px" y="0px"
	 viewBox="0 0 237.6 378" style="enable-background:new 0 0 237.6 378;" xml:space="preserve">
<path d="M151.4,128c-2.4-34.1-31.9-59.8-66-57.5c-34.1,2.4-59.8,31.9-57.5,66L37,267.9l51.9-3.6l6.5-57.1l10,55.9l34.2-2.4l5.1-45.5
	l7.9,44.6l7.9-0.5L151.4,128z"/>
<g>
	<circle style="fill:#FFFFFF;" cx="147.6" cy="94.9" r="73"/>
	<path d="M147.5996,170.3999c-41.6304,0-75.4995-33.8691-75.4995-75.5s33.8691-75.5,75.4995-75.5c41.6309,0,75.5,33.8691,75.5,75.5
		S189.2305,170.3999,147.5996,170.3999z M147.5996,24.3999c-38.8735,0-70.4995,31.626-70.4995,70.5s31.626,70.5,70.4995,70.5
		c38.874,0,70.5-31.626,70.5-70.5S186.4736,24.3999,147.5996,24.3999z"/>
</g>
<g>
	<g>
		
			<rect x="184.0545" y="83.6464" transform="matrix(0.8457 -0.5337 0.5337 0.8457 -25.0029 115.116)" width="4.9999" height="34.2919"/>
	</g>
	<g>
		
			<rect x="170.5762" y="98.4566" transform="matrix(0.6611 -0.7503 0.7503 0.6611 -12.8129 173.5471)" width="30.2535" height="5.0005"/>
	</g>
</g>
<g>
	<g>
		
			<rect x="156.2097" y="103.0842" transform="matrix(0.1462 -0.9893 0.9893 0.1462 -4.3707 277.7305)" width="5.0001" height="76.6262"/>
	</g>
	<g>
		
			<rect x="124.1971" y="135.3069" transform="matrix(0.1776 -0.9841 0.9841 0.1776 -25.3702 245.2547)" width="19.7131" height="4.9994"/>
	</g>
	<g>
		
			<rect x="141.3569" y="138.3574" transform="matrix(0.1776 -0.9841 0.9841 0.1776 -14.7198 264.1001)" width="18.5948" height="4.9994"/>
	</g>
	<g>
		<rect x="156.6236" y="140.0976" transform="matrix(0.1187 -0.9929 0.9929 0.1187 4.6079 290.3867)" width="18.5305" height="5"/>
	</g>
	<g>
		
			<rect x="170.3518" y="142.0478" transform="matrix(0.1486 -0.9889 0.9889 0.1486 9.5418 300.1791)" width="17.4948" height="5.0008"/>
	</g>
</g>
<g>
	<g>
		<circle style="fill:#FFFFFF;" cx="138.1" cy="92.3" r="14.2"/>
		<path d="M138.0996,109c-9.208,0-16.6992-7.4917-16.6992-16.7002c0-9.208,7.4912-16.6997,16.6992-16.6997
			c9.209,0,16.7002,7.4917,16.7002,16.6997C154.7998,101.5083,147.3086,109,138.0996,109z M138.0996,80.6001
			c-6.4512,0-11.6992,5.2485-11.6992,11.6997c0,6.4517,5.248,11.7002,11.6992,11.7002s11.7002-5.2485,11.7002-11.7002
			C149.7998,85.8486,144.5508,80.6001,138.0996,80.6001z"/>
	</g>
	<g>
		<circle cx="138.1" cy="87.8" r="6.2"/>
	</g>
</g>
<g>
	<path d="M145.2,194.9c-4,0-7.4-2.9-7.9-7c-0.6-4.4,2.5-8.4,6.9-8.9l72.7-9.3c4.4-0.6,8.4,2.5,9,6.9s-2.5,8.4-6.9,8.9l-72.7,9.3
		C145.9,194.9,145.5,194.9,145.2,194.9z"/>
</g>
<g>
	<path d="M111.9,352.3c-0.3,0-0.6,0-1-0.1c-4.4-0.5-7.5-4.5-7-8.9l15.9-131.7c0.5-4.4,4.5-7.5,8.9-7s7.5,4.5,7,8.9l-15.9,131.7
		C119.3,349.3,115.9,352.3,111.9,352.3z"/>
</g>
<g>
	<path d="M17,358.6c-1.2,0-2.4-0.3-3.6-0.8c-4-2-5.6-6.8-3.6-10.7L67,232.3c2-4,6.8-5.6,10.7-3.6c4,2,5.6,6.8,3.6,10.7L24.2,354.1
		C22.8,357,20,358.6,17,358.6z"/>
</g>
<g>
	<path style="fill:#FFFFFF;" d="M74.7,233.1c-3.9,0-7.3-2.9-7.9-6.8L48.9,105.2c-0.6-4.4,2.4-8.4,6.7-9.1c4.4-0.6,8.4,2.4,9.1,6.7
		l17.9,121.1c0.6,4.4-2.4,8.4-6.7,9.1C75.5,233.1,75.1,233.1,74.7,233.1z"/>
</g>
</svg>
