<?xml version="1.0" encoding="utf-8"?>
<!-- Generator: Adobe Illustrator 27.2.0, SVG Export Plug-In . SVG Version: 6.00 Build 0)  -->
<svg version="1.1" id="fall1" xmlns="http://www.w3.org/2000/svg" xmlns:xlink="http://www.w3.org/1999/xlink" x="0px" y="0px"
	 viewBox="0 0 237.5995 377.9992" style="enable-background:new 0 0 237.5995 377.9992;" xml:space="preserve">
<path d="M153.9823,132.1703c0-34.1783-27.707-61.8853-61.8852-61.8853c-34.1783,0-61.8853,27.707-61.8853,61.8853v131.694h52.0416
	l10.3901-56.4962l6.0609,56.4962h34.2933l8.2797-45.0208l4.8298,45.0208h7.8751V132.1703z"/>
<g>
	<g>
		<circle style="fill:#FFFFFF;" cx="147.6486" cy="92.9348" r="72.9508"/>
		<path d="M147.6484,168.3857c-41.6035,0-75.4507-33.8472-75.4507-75.4512c0-41.6035,33.8472-75.4507,75.4507-75.4507
			s75.4512,33.8472,75.4512,75.4507C223.0996,134.5386,189.252,168.3857,147.6484,168.3857z M147.6484,22.4839
			c-38.8467,0-70.4507,31.604-70.4507,70.4507s31.604,70.4512,70.4507,70.4512s70.4512-31.6045,70.4512-70.4512
			S186.4951,22.4839,147.6484,22.4839z"/>
	</g>
	<g>
		<g>
			
				<rect x="184.4936" y="91.8418" transform="matrix(0.7841 -0.6206 0.6206 0.7841 -24.6602 138.6591)" width="4.9992" height="25.874"/>
		</g>
		<g>
			
				<rect x="175.8216" y="102.1034" transform="matrix(0.9609 -0.2769 0.2769 0.9609 -21.6868 55.6521)" width="20.7191" height="5.0003"/>
		</g>
	</g>
	<g>
		<g>
			<circle style="fill:#FFFFFF;" cx="137.8126" cy="101.7133" r="14.2077"/>
			<path d="M137.8125,118.4209c-9.2129,0-16.708-7.4951-16.708-16.7075c0-9.2129,7.4951-16.708,16.708-16.708
				s16.708,7.4951,16.708,16.708C154.5205,110.9258,147.0254,118.4209,137.8125,118.4209z M137.8125,90.0054
				c-6.4561,0-11.708,5.252-11.708,11.708c0,6.4556,5.252,11.7075,11.708,11.7075s11.708-5.252,11.708-11.7075
				C149.5205,95.2573,144.2686,90.0054,137.8125,90.0054z"/>
		</g>
		<g>
			<circle cx="137.7867" cy="111.2503" r="6.1877"/>
		</g>
	</g>
</g>
<g>
	<path d="M147.6484,219.499c-2.0479,0-4.0947-0.7812-5.6572-2.3428c-3.124-3.125-3.124-8.1895,0-11.3145l51.8096-51.8086
		c3.126-3.124,8.1904-3.124,11.3145,0s3.124,8.1895,0,11.3135l-51.8096,51.8096
		C151.7432,218.7178,149.6953,219.499,147.6484,219.499z"/>
</g>
<g>
	<path d="M59.4448,147.6904c-3.6929,0-7.0122-2.5718-7.8154-6.3286L26.0322,21.6567c-0.9238-4.3208,1.8296-8.5723,6.1504-9.4961
		c4.3203-0.9229,8.5723,1.8301,9.4961,6.1504l25.5972,119.7051c0.9238,4.3208-1.8296,8.5723-6.1504,9.4961
		C60.5615,147.6328,59.999,147.6904,59.4448,147.6904z"/>
</g>
<g>
	<path d="M155.042,317.7256c-2.7656,0-5.4541-1.4346-6.9365-4.001l-56.5957-98.0283c-2.209-3.8262-0.8979-8.7188,2.9282-10.9287
		c3.8271-2.2051,8.7192-0.8975,10.9282,2.9287l56.5957,98.0283c2.21,3.8262,0.8984,8.7188-2.9277,10.9277
		C157.7744,317.3799,156.3984,317.7256,155.042,317.7256z"/>
</g>
<g>
	<path d="M80.2441,363.4678c-4.1987,0-7.7222-3.2715-7.978-7.5186l-8.2734-137.1895c-0.2661-4.4102,3.0933-8.2012,7.5039-8.4668
		c4.4058-0.2764,8.2012,3.0928,8.4668,7.5039l8.2734,137.1895c0.2661,4.4102-3.0933,8.2012-7.5039,8.4668
		C80.5693,363.4629,80.4058,363.4678,80.2441,363.4678z"/>
</g>
<g>
	<path d="M155.0342,157.8872c-5.4512,0-9.8857-4.4346-9.8857-9.8857s4.4346-9.8857,9.8857-9.8857s9.8857,4.4346,9.8857,9.8857
		S160.4854,157.8872,155.0342,157.8872z M155.0342,143.1157c-2.6943,0-4.8857,2.1919-4.8857,4.8857s2.1914,4.8857,4.8857,4.8857
		s4.8857-2.1919,4.8857-4.8857S157.7285,143.1157,155.0342,143.1157z"/>
</g>
</svg>
