<?xml version="1.0" encoding="utf-8"?>
<!-- Generator: Adobe Illustrator 27.2.0, SVG Export Plug-In . SVG Version: 6.00 Build 0)  -->
<svg version="1.1" id="fall2" xmlns="http://www.w3.org/2000/svg" xmlns:xlink="http://www.w3.org/1999/xlink" x="0px" y="0px"
	 viewBox="0 0 237.5995 377.9992" style="enable-background:new 0 0 237.5995 377.9992;" xml:space="preserve">
<path d="M153.9823,132.1703c0-34.1783-27.707-61.8853-61.8852-61.8853c-34.1783,0-61.8853,27.707-61.8853,61.8853v131.694h52.0416
	l10.3901-56.4962l6.0609,56.4962h34.2933l8.2797-45.0208l4.8298,45.0208h7.8751V132.1703z"/>
<g>
	<g>
		<circle style="fill:#FFFFFF;" cx="147.6486" cy="92.9348" r="72.9508"/>
		<path d="M147.6484,168.3857c-41.6035,0-75.4507-33.8472-75.4507-75.4512c0-41.6035,33.8472-75.4507,75.4507-75.4507
			s75.4512,33.8472,75.4512,75.4507C223.0996,134.5386,189.252,168.3857,147.6484,168.3857z M147.6484,22.4839
			c-38.8467,0-70.4507,31.604-70.4507,70.4507s31.604,70.4512,70.4507,70.4512s70.4512-31.6045,70.4512-70.4512
			S186.4951,22.4839,147.6484,22.4839z"/>
	</g>
	<g>
		<g>
			
				<rect x="184.4936" y="101.8497" transform="matrix(0.7842 -0.6206 0.6206 0.7842 -30.8713 140.8168)" width="4.9992" height="25.8743"/>
		</g>
		<g>
			
				<rect x="175.8216" y="112.1112" transform="matrix(0.9609 -0.2769 0.2769 0.9609 -24.4583 56.0435)" width="20.7191" height="5.0003"/>
		</g>
	</g>
	<g>
		<g>
			<circle style="fill:#FFFFFF;" cx="143.2663" cy="95.6772" r="19.6614"/>
			<path d="M143.2666,117.8384c-12.2207,0-22.1621-9.9414-22.1621-22.1611s9.9414-22.1616,22.1621-22.1616
				c12.2197,0,22.1611,9.9419,22.1611,22.1616S155.4863,117.8384,143.2666,117.8384z M143.2666,78.5156
				c-9.4629,0-17.1621,7.6987-17.1621,17.1616s7.6992,17.1611,17.1621,17.1611s17.1611-7.6982,17.1611-17.1611
				S152.7295,78.5156,143.2666,78.5156z"/>
		</g>
		<g>
			<circle cx="143.2304" cy="108.8751" r="8.5628"/>
		</g>
	</g>
</g>
<g>
	<path d="M143.9658,207.4766c-3.7568,0-7.1084-2.6602-7.8467-6.4863c-0.8369-4.3379,2.002-8.5342,6.3398-9.3711l71.9414-13.8799
		c4.3359-0.8403,8.5342,2.001,9.3711,6.3394s-2.002,8.5337-6.3398,9.3706l-71.9414,13.8809
		C144.9785,207.4287,144.4688,207.4766,143.9658,207.4766z"/>
</g>
<g>
	<path d="M59.4448,147.6904c-3.6929,0-7.0122-2.5718-7.8154-6.3286L30.3945,42.0576c-0.9238-4.3208,1.8296-8.5723,6.1504-9.4961
		c4.3213-0.9229,8.5723,1.8301,9.4961,6.1504l21.2349,99.3042c0.9238,4.3208-1.8296,8.5723-6.1504,9.4961
		C60.5615,147.6328,59.999,147.6904,59.4448,147.6904z"/>
</g>
<g>
	<path d="M147.6562,298.7441c-2.6719,0-5.2832-1.3379-6.7988-3.7734l-49.2109-79.0469c-2.335-3.75-1.1875-8.6836,2.5635-11.0186
		c3.7515-2.3369,8.6846-1.1865,11.0195,2.5635l49.21,79.0469c2.3359,3.75,1.1875,8.6836-2.5635,11.0186
		C150.5605,298.3535,149.0996,298.7441,147.6562,298.7441z"/>
</g>
<g>
	<path d="M79.1694,345.6465c-4.1982,0-7.7222-3.2725-7.978-7.5186l-7.1987-119.3682c-0.2661-4.4102,3.0938-8.2012,7.5039-8.4668
		c4.4058-0.2764,8.2012,3.0928,8.4668,7.5039l7.1987,119.3682c0.2661,4.4102-3.0933,8.2012-7.5039,8.4668
		C79.4946,345.6416,79.3311,345.6465,79.1694,345.6465z"/>
</g>
<circle cx="155.0344" cy="148.0015" r="7.3857"/>
</svg>
