<?xml version="1.0" encoding="utf-8"?>
<!-- Generator: Adobe Illustrator 27.2.0, SVG Export Plug-In . SVG Version: 6.00 Build 0)  -->
<svg version="1.1" id="jump" xmlns="http://www.w3.org/2000/svg" xmlns:xlink="http://www.w3.org/1999/xlink" x="0px" y="0px"
	 viewBox="0 0 237.5995 377.9992" style="enable-background:new 0 0 237.5995 377.9992;" xml:space="preserve">
<path d="M153.9823,132.1703c0-34.1783-27.707-61.8853-61.8852-61.8853c-34.1783,0-61.8853,27.707-61.8853,61.8853v131.694h52.0416
	l10.3901-56.4962l6.0609,56.4962h34.2933l8.2797-45.0208l4.8298,45.0208h7.8751V132.1703z"/>
<g>
	<circle style="fill:#FFFFFF;" cx="147.6486" cy="74.9204" r="72.9508"/>
	<path d="M147.6484,150.3711c-41.6035,0-75.4507-33.8472-75.4507-75.4507s33.8472-75.4507,75.4507-75.4507
		s75.4512,33.8472,75.4512,75.4507S189.252,150.3711,147.6484,150.3711z M147.6484,4.4697
		c-38.8467,0-70.4507,31.604-70.4507,70.4507s31.604,70.4507,70.4507,70.4507s70.4512-31.604,70.4512-70.4507
		S186.4951,4.4697,147.6484,4.4697z"/>
</g>
<g>
	<g>
		
			<rect x="184.4933" y="44.8263" transform="matrix(0.618 -0.7861 0.7861 0.618 24.9823 169.5693)" width="4.9997" height="28.4988"/>
	</g>
	<g>
		
			<rect x="174.2773" y="56.7612" transform="matrix(0.6891 -0.7247 0.7247 0.6891 14.9357 153.3357)" width="23.792" height="4.9997"/>
	</g>
</g>
<g>
	<g>
		<circle style="fill:#FFFFFF;" cx="137.8126" cy="53.6749" r="14.2077"/>
		<path d="M137.8125,70.3828c-9.2129,0-16.708-7.4951-16.708-16.708c0-9.2124,7.4951-16.7075,16.708-16.7075
			s16.708,7.4951,16.708,16.7075C154.5205,62.8877,147.0254,70.3828,137.8125,70.3828z M137.8125,41.9673
			c-6.4561,0-11.708,5.252-11.708,11.7075c0,6.4561,5.252,11.708,11.708,11.708s11.708-5.252,11.708-11.708
			C149.5205,47.2192,144.2686,41.9673,137.8125,41.9673z"/>
	</g>
	<g>
		<circle cx="137.7867" cy="43.1959" r="6.1877"/>
	</g>
</g>
<g>
	<path d="M138.0752,185.2593c-3.251,0-6.3076-1.9966-7.5029-5.2236c-1.5342-4.1436,0.5801-8.7461,4.7236-10.2803l68.708-25.4448
		c4.1426-1.5356,8.7451,0.5806,10.2803,4.7236c1.5342,4.1436-0.5801,8.7461-4.7236,10.2803l-68.708,25.4448
		C139.9365,185.0986,138.998,185.2593,138.0752,185.2593z"/>
</g>
<g>
	<path style="fill:#FFFFFF;" d="M40.2038,221.1775c-0.1215-0.0312-0.2425-0.0649-0.3637-0.1012
		c-4.2309-1.2688-6.7369-5.2236-5.5975-8.833l31.5712-100.0109c1.1395-3.6098,5.4986-5.5075,9.7236-4.2389
		c4.2309,1.2688,6.7369,5.2236,5.5975,8.833L49.5637,216.8374C48.4567,220.3438,44.3171,222.2348,40.2038,221.1775z"/>
</g>
<g>
	<path d="M74.6929,366.4463c-1.1084,0-2.2339-0.2314-3.3086-0.7207c-4.0215-1.8291-5.7979-6.5732-3.9683-10.5947l54.9375-120.7324
		c1.8301-4.0225,6.5713-5.7979,10.5947-3.9678c4.0215,1.8291,5.7979,6.5732,3.9678,10.5947L81.9795,361.7578
		C80.6382,364.7051,77.7324,366.4463,74.6929,366.4463z"/>
</g>
<g>
	<path d="M20.0493,355.1377c-1.2124,0-2.4429-0.2764-3.5996-0.8604c-3.9438-1.9922-5.5269-6.8037-3.5352-10.7471L70.668,229.1523
		c1.9902-3.9453,6.8018-5.5293,10.7471-3.5361c3.9438,1.9922,5.5269,6.8037,3.5352,10.7471L27.1968,350.7412
		C25.7896,353.5293,22.9727,355.1377,20.0493,355.1377z"/>
</g>
<g>
	<path d="M165.042,107.8472c-5.4512,0-9.8857-4.4346-9.8857-9.8857s4.4346-9.8857,9.8857-9.8857s9.8857,4.4346,9.8857,9.8857
		S170.4932,107.8472,165.042,107.8472z M165.042,93.0757c-2.6943,0-4.8857,2.1919-4.8857,4.8857s2.1914,4.8857,4.8857,4.8857
		s4.8857-2.1919,4.8857-4.8857S167.7363,93.0757,165.042,93.0757z"/>
</g>
</svg>
