<?xml version="1.0" encoding="utf-8"?>
<!-- Generator: Adobe Illustrator 27.2.0, SVG Export Plug-In . SVG Version: 6.00 Build 0)  -->
<svg version="1.1" id="running1" xmlns="http://www.w3.org/2000/svg" xmlns:xlink="http://www.w3.org/1999/xlink" x="0px" y="0px"
	 viewBox="0 0 237.5995 377.9992" style="enable-background:new 0 0 237.5995 377.9992;" xml:space="preserve">
<path d="M107.4935,270.2408l7.8246-0.8904l-0.2915-45.2782l13.3169,43.7959l34.0734-3.8774l-0.3658-56.8192l16.7113,54.9592
	l51.7079-5.8842L215.58,125.397c-3.8644-33.9591-34.5265-58.3557-68.4856-54.4913c-33.959,3.8644-58.3556,34.5265-54.4912,68.4856
	L107.4935,270.2408z"/>
<circle style="fill:#FFFFFF;stroke:#000000;stroke-width:5;stroke-miterlimit:10;" cx="92.4786" cy="85.9292" r="72.9508"/>
<g>
	
		<line style="fill:none;stroke:#000000;stroke-width:5;stroke-miterlimit:10;" x1="40.3638" y1="88.6539" x2="67.4592" y2="67.6415"/>
	
		<line style="fill:none;stroke:#000000;stroke-width:5;stroke-miterlimit:10;" x1="60.183" y1="92.6527" x2="49.1389" y2="64.5025"/>
</g>
<g>
	
		<line style="fill:none;stroke:#000000;stroke-width:5;stroke-miterlimit:10;" x1="28.725" y1="118.1181" x2="103.7844" y2="133.5039"/>
	
		<line style="fill:none;stroke:#000000;stroke-width:5;stroke-miterlimit:10;" x1="88.9833" y1="140.5518" x2="92.3384" y2="121.1602"/>
	
		<line style="fill:none;stroke:#000000;stroke-width:5;stroke-miterlimit:10;" x1="72.3781" y1="137.2015" x2="75.517" y2="118.8812"/>
	
		<line style="fill:none;stroke:#000000;stroke-width:5;stroke-miterlimit:10;" x1="56.9522" y1="133.5316" x2="61.1624" y2="115.4275"/>
	
		<line style="fill:none;stroke:#000000;stroke-width:5;stroke-miterlimit:10;" x1="44.2046" y1="130.4021" x2="47.663" y2="113.2612"/>
</g>
<g>
	<circle style="fill:#FFFFFF;stroke:#000000;stroke-width:5;stroke-miterlimit:10;" cx="102.3635" cy="86.6693" r="14.2077"/>
	<circle cx="102.4821" cy="86.2127" r="6.1877"/>
</g>
<line style="fill:none;stroke:#000000;stroke-width:16;stroke-linecap:round;stroke-miterlimit:10;" x1="33.9049" y1="170.5367" x2="103.2967" y2="194.0549"/>
<g>
	<path style="fill:#FFFFFF;" d="M214.8377,224.1609L185.531,105.3107c-1.0581-4.29,1.562-8.625,5.8516-9.6831
		c4.29-1.0546,8.6245,1.5621,9.6826,5.8521l29.3077,118.8511c1.0576,4.289-1.5625,8.625-5.8521,9.6826
		c-0.6436,0.1582-1.2876,0.2344-1.9219,0.2344C219.0046,230.2478,215.7371,227.8074,214.8377,224.1609z"/>
</g>
<line style="fill:none;stroke:#000000;stroke-width:16;stroke-linecap:round;stroke-miterlimit:10;" x1="95.2628" y1="357.3777" x2="137.885" y2="231.7681"/>
<line style="fill:none;stroke:#000000;stroke-width:16;stroke-linecap:round;stroke-miterlimit:10;" x1="204.1607" y1="331.3839" x2="168.0952" y2="208.4331"/>
</svg>
