<?xml version="1.0" encoding="utf-8"?>
<!-- Generator: Adobe Illustrator 27.2.0, SVG Export Plug-In . SVG Version: 6.00 Build 0)  -->
<svg version="1.1" id="running2" xmlns="http://www.w3.org/2000/svg" xmlns:xlink="http://www.w3.org/1999/xlink" x="0px" y="0px"
	 viewBox="0 0 237.5995 377.9992" style="enable-background:new 0 0 237.5995 377.9992;" xml:space="preserve">
<path d="M77.0965,259.3484l7.8562,0.5451l7.9346-44.5785l5.1435,45.4859l34.211,2.3738l9.957-55.9412l6.4546,57.0799l51.9167,3.6023
	l9.1158-131.3781c2.3658-34.0963-23.3569-63.6547-57.4532-66.0205c-34.0962-2.3658-63.6546,23.3569-66.0204,57.4532
	L77.0965,259.3484z"/>
<circle style="fill:#FFFFFF;stroke:#000000;stroke-width:5;stroke-miterlimit:10;" cx="89.9815" cy="94.9364" r="72.9508"/>
<g>
	
		<line style="fill:none;stroke:#000000;stroke-width:5;stroke-miterlimit:10;" x1="41.9258" y1="115.284" x2="60.2229" y2="86.2857"/>
	
		<line style="fill:none;stroke:#000000;stroke-width:5;stroke-miterlimit:10;" x1="61.9197" y1="112.2785" x2="41.9313" y2="89.5879"/>
</g>
<g>
	
		<line style="fill:none;stroke:#000000;stroke-width:5;stroke-miterlimit:10;" x1="41.0418" y1="146.9513" x2="116.8455" y2="135.7959"/>
	
		<line style="fill:none;stroke:#000000;stroke-width:5;stroke-miterlimit:10;" x1="105.3385" y1="147.4722" x2="101.8739" y2="128.0999"/>
	
		<line style="fill:none;stroke:#000000;stroke-width:5;stroke-miterlimit:10;" x1="88.5868" y1="149.9903" x2="85.2847" y2="131.6987"/>
	
		<line style="fill:none;stroke:#000000;stroke-width:5;stroke-miterlimit:10;" x1="72.8347" y1="151.8056" x2="70.6133" y2="133.3515"/>
	
		<line style="fill:none;stroke:#000000;stroke-width:5;stroke-miterlimit:10;" x1="59.7844" y1="153.2147" x2="57.1851" y2="135.9226"/>
</g>
<g>
	<circle style="fill:#FFFFFF;stroke:#000000;stroke-width:5;stroke-miterlimit:10;" cx="99.5255" cy="92.2584" r="14.2077"/>
	<circle cx="99.4811" cy="87.7856" r="6.1877"/>
</g>
<line style="fill:none;stroke:#000000;stroke-width:16;stroke-linecap:round;stroke-miterlimit:10;" x1="19.7569" y1="177.651" x2="92.4345" y2="186.9406"/>
<line style="fill:none;stroke:#000000;stroke-width:16;stroke-linecap:round;stroke-miterlimit:10;" x1="125.7545" y1="344.3007" x2="109.9019" y2="212.6074"/>
<line style="fill:none;stroke:#000000;stroke-width:16;stroke-linecap:round;stroke-miterlimit:10;" x1="220.5994" y1="350.5772" x2="163.4425" y2="235.9007"/>
<g>
	<path style="fill:#FFFFFF;" d="M161.7417,232.9978c-4.3711-0.6455-7.3911-4.7119-6.7456-9.083l17.8829-121.0982
		c0.6455-4.3701,4.7109-7.3911,9.0825-6.7451c4.3711,0.6455,7.3911,4.7119,6.7456,9.083l-17.8828,121.0982
		c-0.5869,3.9746-4.0029,6.832-7.9043,6.832C162.5313,233.0847,162.1377,233.0564,161.7417,232.9978z"/>
</g>
</svg>
