<?xml version="1.0" encoding="utf-8"?>
<!-- Generator: Adobe Illustrator 26.5.0, SVG Export Plug-In . SVG Version: 6.00 Build 0)  -->
<svg version="1.1" id="Layer_1" xmlns="http://www.w3.org/2000/svg" xmlns:xlink="http://www.w3.org/1999/xlink" x="0px" y="0px"
	 viewBox="0 0 1000 300" style="enable-background:new 0 0 1000 300;" xml:space="preserve">
<polygon style="fill:#FEBC12;" points="833.824,68.4879 826.2964,61.0144 818.7687,68.4879 674.8796,68.4879 659.4954,53.2144 
	649.3859,63.2511 644.1111,58.0144 636.419,65.6512 628.7268,58.0144 618.1774,68.4879 429.2375,68.4879 413.8532,53.2144 
	403.7437,63.2511 398.469,58.0144 387.9195,68.4879 121.3473,68.4879 123.7646,66.0879 108.3803,50.8144 92.996,66.0879 
	95.4134,68.4879 0,69.8229 0,301.1992 1000,299.8642 1000,68.4879 "/>
<g>
	<ellipse style="opacity:0.5;" cx="306.0433" cy="247.2914" rx="22.778" ry="5.9"/>
	<path style="fill:#FFFFFF;" d="M293.8431,214.7897c-8.1302,3.9305-11.5348,13.7076-7.6043,21.8379
		c3.9305,8.1302,13.7076,11.5348,21.8379,7.6043c0.5863-0.2835,1.145-0.6006,1.6812-0.9421l1.9345,4.0016l12.9892-6.2795
		l-9.0006-18.6178C311.7505,214.2638,301.9733,210.8592,293.8431,214.7897z"/>
	
		<line style="fill:none;stroke:#9B9B9B;stroke-width:2;stroke-miterlimit:10;" x1="312.8101" y1="236.5132" x2="320.6698" y2="232.7135"/>
	<circle style="fill:#828181;" cx="307.2329" cy="227.9346" r="4.3164"/>
</g>
</svg>
