<?xml version="1.0" encoding="utf-8"?>
<!-- Generator: Adobe Illustrator 26.5.0, SVG Export Plug-In . SVG Version: 6.00 Build 0)  -->
<svg version="1.1" id="running1" xmlns="http://www.w3.org/2000/svg" xmlns:xlink="http://www.w3.org/1999/xlink" x="0px" y="0px"
	 viewBox="0 0 237.5995 377.9992" style="enable-background:new 0 0 237.5995 377.9992;" xml:space="preserve">
<path d="M153.9823,132.1703c0-34.1783-27.707-61.8853-61.8852-61.8853c-34.1783,0-61.8853,27.707-61.8853,61.8853v131.694h52.0416
	l10.3901-56.4962l6.0609,56.4962h34.2933l8.2797-45.0208l4.8298,45.0208h7.8751V132.1703z"/>
<circle style="fill:#FFFFFF;stroke:#000000;stroke-width:5;stroke-miterlimit:10;" cx="157.6566" cy="85.9292" r="72.9508"/>
<g>
	
		<line style="fill:none;stroke:#000000;stroke-width:5;stroke-miterlimit:10;" x1="182.676" y1="67.6415" x2="209.7714" y2="88.6539"/>
	
		<line style="fill:none;stroke:#000000;stroke-width:5;stroke-miterlimit:10;" x1="200.9963" y1="64.5025" x2="189.9522" y2="92.6527"/>
</g>
<g>
	
		<line style="fill:none;stroke:#000000;stroke-width:5;stroke-miterlimit:10;" x1="146.3508" y1="133.5039" x2="221.4102" y2="118.1181"/>
	
		<line style="fill:none;stroke:#000000;stroke-width:5;stroke-miterlimit:10;" x1="157.7968" y1="121.1602" x2="161.1519" y2="140.5518"/>
	
		<line style="fill:none;stroke:#000000;stroke-width:5;stroke-miterlimit:10;" x1="174.6182" y1="118.8812" x2="177.7571" y2="137.2015"/>
	
		<line style="fill:none;stroke:#000000;stroke-width:5;stroke-miterlimit:10;" x1="188.9728" y1="115.4275" x2="193.183" y2="133.5316"/>
	
		<line style="fill:none;stroke:#000000;stroke-width:5;stroke-miterlimit:10;" x1="202.4722" y1="113.2612" x2="205.9306" y2="130.4021"/>
</g>
<g>
	<circle style="fill:#FFFFFF;stroke:#000000;stroke-width:5;stroke-miterlimit:10;" cx="147.7717" cy="86.6693" r="14.2077"/>
	<circle cx="147.6531" cy="86.2127" r="6.1877"/>
</g>
<line style="fill:none;stroke:#000000;stroke-width:16;stroke-linecap:round;stroke-miterlimit:10;" x1="146.8385" y1="194.0549" x2="216.2303" y2="170.5367"/>
<g>
	<path style="fill:#FFFFFF;" d="M27.5363,230.2478c-0.6343,0-1.2783-0.0762-1.9219-0.2344
		c-4.2896-1.0576-6.9097-5.3936-5.8521-9.6826L49.07,101.4797c1.0581-4.29,5.3926-6.9067,9.6826-5.8521
		c4.2896,1.0581,6.9097,5.3931,5.8516,9.6831L35.2975,224.1609C34.3981,227.8074,31.1306,230.2478,27.5363,230.2478z"/>
</g>
<line style="fill:none;stroke:#000000;stroke-width:16;stroke-linecap:round;stroke-miterlimit:10;" x1="112.2502" y1="231.7681" x2="154.8724" y2="357.3777"/>
<line style="fill:none;stroke:#000000;stroke-width:16;stroke-linecap:round;stroke-miterlimit:10;" x1="82.04" y1="208.4331" x2="45.9745" y2="331.3839"/>
</svg>
