<?xml version="1.0" encoding="utf-8"?>
<!-- Generator: Adobe Illustrator 26.5.0, SVG Export Plug-In . SVG Version: 6.00 Build 0)  -->
<svg version="1.1" id="running2" xmlns="http://www.w3.org/2000/svg" xmlns:xlink="http://www.w3.org/1999/xlink" x="0px" y="0px"
	 viewBox="0 0 237.5995 377.9992" style="enable-background:new 0 0 237.5995 377.9992;" xml:space="preserve">
<path d="M151.4178,127.9703c-2.3658-34.0963-31.9242-59.819-66.0204-57.4532c-34.0963,2.3658-59.819,31.9242-57.4532,66.0205
	L37.06,267.9157l51.9167-3.6023l6.4546-57.0799l9.957,55.9412l34.211-2.3738l5.1435-45.4859l7.9346,44.5785l7.8562-0.5451
	L151.4178,127.9703z"/>
<circle style="fill:#FFFFFF;stroke:#000000;stroke-width:5;stroke-miterlimit:10;" cx="147.6486" cy="94.9364" r="72.9508"/>
<g>
	
		<line style="fill:none;stroke:#000000;stroke-width:5;stroke-miterlimit:10;" x1="177.4072" y1="86.2857" x2="195.7043" y2="115.284"/>
	
		<line style="fill:none;stroke:#000000;stroke-width:5;stroke-miterlimit:10;" x1="195.6988" y1="89.5879" x2="175.7104" y2="112.2785"/>
</g>
<g>
	
		<line style="fill:none;stroke:#000000;stroke-width:5;stroke-miterlimit:10;" x1="120.7846" y1="135.7959" x2="196.5883" y2="146.9513"/>
	
		<line style="fill:none;stroke:#000000;stroke-width:5;stroke-miterlimit:10;" x1="135.7562" y1="128.0999" x2="132.2916" y2="147.4722"/>
	
		<line style="fill:none;stroke:#000000;stroke-width:5;stroke-miterlimit:10;" x1="152.3454" y1="131.6987" x2="149.0433" y2="149.9903"/>
	
		<line style="fill:none;stroke:#000000;stroke-width:5;stroke-miterlimit:10;" x1="167.0168" y1="133.3515" x2="164.7954" y2="151.8056"/>
	
		<line style="fill:none;stroke:#000000;stroke-width:5;stroke-miterlimit:10;" x1="180.445" y1="135.9226" x2="177.8457" y2="153.2147"/>
</g>
<g>
	<circle style="fill:#FFFFFF;stroke:#000000;stroke-width:5;stroke-miterlimit:10;" cx="138.1046" cy="92.2584" r="14.2077"/>
	<circle cx="138.149" cy="87.7856" r="6.1877"/>
</g>
<line style="fill:none;stroke:#000000;stroke-width:16;stroke-linecap:round;stroke-miterlimit:10;" x1="145.1956" y1="186.9406" x2="217.8732" y2="177.651"/>
<line style="fill:none;stroke:#000000;stroke-width:16;stroke-linecap:round;stroke-miterlimit:10;" x1="127.7282" y1="212.6074" x2="111.8756" y2="344.3007"/>
<line style="fill:none;stroke:#000000;stroke-width:16;stroke-linecap:round;stroke-miterlimit:10;" x1="74.1876" y1="235.9007" x2="17.0307" y2="350.5772"/>
<g>
	<path style="fill:#FFFFFF;" d="M74.7101,233.0847c-3.9014,0-7.3174-2.8574-7.9043-6.832L48.923,105.1545
		c-0.6455-4.3711,2.3745-8.4375,6.7456-9.083c4.3716-0.646,8.437,2.375,9.0825,6.7451L82.634,223.9148
		c0.6455,4.3711-2.3745,8.4375-6.7456,9.083C75.4924,233.0564,75.0988,233.0847,74.7101,233.0847z"/>
</g>
</svg>
