<?xml version="1.0" encoding="utf-8"?>
<!-- Generator: Adobe Illustrator 26.5.0, SVG Export Plug-In . SVG Version: 6.00 Build 0)  -->
<svg version="1.1" id="Layer_1" xmlns="http://www.w3.org/2000/svg" xmlns:xlink="http://www.w3.org/1999/xlink" x="0px" y="0px"
	 viewBox="0 0 1000 300" style="enable-background:new 0 0 1000 300;" xml:space="preserve">
<polygon style="fill:#FEBC12;" points="833.824,68.4879 826.2964,61.0144 818.7687,68.4879 674.8796,68.4879 659.4954,53.2144 
	649.3859,63.2511 644.1111,58.0144 636.419,65.6512 628.7268,58.0144 618.1774,68.4879 429.2375,68.4879 413.8532,53.2144 
	403.7437,63.2511 398.469,58.0144 387.9195,68.4879 121.3473,68.4879 123.7646,66.0879 108.3803,50.8144 92.996,66.0879 
	95.4134,68.4879 0,69.8229 0,301.1992 1000,299.8642 1000,68.4879 "/>
<path style="fill:#FFFFFF;" d="M595.5954,213.0685c-0.1285,0-0.2501,0.0244-0.375,0.0378v-0.0378
	c1.9377,0,3.5085-1.5708,3.5085-3.5085s-1.5708-3.5085-3.5085-3.5085s-3.5085,1.5708-3.5085,3.5085h-28.2575
	c0-2.4833-2.0131-4.4964-4.4963-4.4964c-2.4833,0-4.4964,2.0131-4.4964,4.4964c0,2.1324,1.4885,3.9089,3.4804,4.3709
	c-1.0718,0.6005-1.8047,1.7334-1.8047,3.0493c0,1.9377,1.5709,3.5085,3.5085,3.5085c1.7996,0,3.2656-1.3601,3.4679-3.1054h29.0752
	c0.3655,1.5472,1.7474,2.7022,3.4064,2.7022c1.9377,0,3.5085-1.5708,3.5085-3.5085S597.5331,213.0685,595.5954,213.0685z"/>
<path style="fill:#FFFFFF;" d="M99.4356,101.8164c-0.0965,0.0251-0.1831,0.0671-0.2742,0.1016l-0.0074-0.0284
	c1.4552-0.3782,2.3283-1.8643,1.9501-3.3195c-0.3782-1.4552-1.8643-2.3283-3.3195-1.9501
	c-1.4551,0.3782-2.3282,1.8643-1.9501,3.3195l-21.2206,5.5146c-0.4846-1.8649-2.3893-2.9838-4.2541-2.4992
	c-1.8649,0.4846-2.9838,2.3893-2.4992,4.2542c0.4162,1.6014,1.8806,2.645,3.4667,2.6032c-0.6877,0.6601-1.017,1.6539-0.7602,2.6421
	c0.3782,1.4551,1.8644,2.3283,3.3195,1.9501c1.3514-0.3512,2.187-1.6587,1.9982-3.0089l21.8346-5.6742
	c0.5765,1.0906,1.8396,1.6883,3.0855,1.3645c1.4552-0.3782,2.3283-1.8643,1.9501-3.3195
	C102.377,102.3113,100.8908,101.4382,99.4356,101.8164z"/>
</svg>
